<?xml version="1.0" standalone="no"?>
<!DOCTYPE svg PUBLIC "-//W3C//DTD SVG 20010904//EN"
 "http://www.w3.org/TR/2001/REC-SVG-20010904/DTD/svg10.dtd">
<svg version="1.0" xmlns="http://www.w3.org/2000/svg"
 width="448.500000pt" height="142.963508pt" viewBox="0 0 448.500000 142.963508"
 preserveAspectRatio="xMidYMid meet">
<metadata>
Created by potrace 1.12, written by Peter Selinger 2001-2015
</metadata>
<g transform="translate(-76.000000,199.955421) scale(0.100000,-0.100000)"
fill="#000000" stroke="none">
<path d="M1262 1976 c-98 -32 -199 -94 -284 -174 -156 -148 -218 -290 -218
-507 0 -124 20 -213 72 -327 l31 -68 288 0 c319 0 305 -3 273 64 l-17 34 -244
4 c-203 2 -245 5 -253 18 -6 8 -20 47 -32 85 -29 92 -31 272 -4 355 55 165
176 315 312 383 l72 36 6 -31 c3 -17 6 -52 6 -79 l0 -49 53 0 c71 -1 117 -25
212 -110 44 -40 99 -88 123 -107 35 -30 42 -41 42 -72 0 -65 -10 -69 -84 -32
l-65 33 -144 -7 c-162 -8 -184 -2 -230 57 l-25 32 -24 -48 -23 -48 42 -38 c52
-46 114 -65 185 -56 207 24 221 21 287 -48 19 -20 38 -36 43 -36 4 0 35 21 68
46 l60 45 0 55 c0 30 5 54 10 54 6 0 10 19 10 43 0 39 -3 43 -43 65 -24 12
-87 61 -141 107 -126 109 -150 126 -211 147 -57 19 -62 29 -64 136 0 34 -4 62
-8 62 -5 -1 -41 -11 -81 -24z"/>
<path d="M1121 1713 c-71 -62 -145 -170 -172 -251 -29 -85 -31 -246 -5 -334
l17 -58 199 0 c110 0 200 3 200 6 0 3 -14 23 -32 45 l-31 39 -133 0 -133 0
-11 57 c-22 106 13 246 88 343 26 35 55 75 64 89 18 27 24 96 10 105 -5 3 -32
-16 -61 -41z"/>
<path d="M4377 1609 c-81 -19 -131 -62 -169 -144 -20 -44 -23 -65 -23 -185 0
-120 3 -141 23 -185 28 -60 64 -100 117 -128 83 -45 252 -21 322 45 21 20 23
30 23 144 0 68 -4 125 -9 129 -6 3 -60 2 -120 -1 l-111 -7 0 -39 0 -38 60 0
60 0 0 -70 c0 -82 -9 -91 -96 -93 -66 -1 -99 20 -131 83 -20 38 -23 59 -23
160 0 129 16 179 65 218 30 24 88 29 128 11 26 -12 57 -57 57 -83 0 -13 12
-16 60 -16 33 0 60 4 60 9 0 25 -34 99 -58 125 -51 54 -157 84 -235 65z"/>
<path d="M3783 1603 l-153 -4 0 -44 0 -45 70 0 70 0 0 -235 0 -235 -70 0 -70
0 0 -45 0 -45 205 0 205 0 0 45 0 45 -75 0 -75 0 0 235 0 234 73 3 72 3 0 45
0 45 -50 0 c-27 1 -119 0 -202 -2z"/>
<path d="M4790 1280 l0 -330 60 0 60 0 1 218 0 217 110 -218 110 -218 57 3 57
3 0 325 0 325 -57 3 -58 3 -2 -215 -3 -215 -110 214 -110 215 -57 0 -58 0 0
-330z"/>
<path d="M2422 1273 l3 -328 58 -3 57 -3 0 131 0 131 58 -3 57 -3 66 -125 65
-125 62 -3 c34 -2 62 1 62 6 0 5 -31 67 -70 137 -38 70 -70 131 -70 134 1 3
19 19 41 34 114 79 99 256 -28 318 -43 22 -64 24 -206 27 l-157 4 2 -329z
m282 223 c71 -30 89 -110 37 -168 -28 -32 -33 -33 -115 -37 l-86 -3 0 111 0
111 65 0 c36 0 81 -6 99 -14z"/>
<path d="M3020 1275 l0 -325 225 0 225 0 0 45 0 45 -165 0 -165 0 0 100 0 100
145 0 c157 0 151 -3 139 59 l-6 31 -139 0 -139 0 0 90 0 90 165 0 165 0 0 45
0 45 -225 0 -225 0 0 -325z"/>
<path d="M1380 1242 c-25 -8 -47 -16 -49 -18 -2 -2 17 -26 42 -54 78 -87 147
-232 147 -310 l0 -30 -344 0 -344 0 -36 -57 c-31 -50 -36 -65 -36 -120 0 -59
2 -64 26 -73 15 -6 214 -10 495 -10 519 0 484 -5 455 65 l-15 35 -423 0 c-233
0 -429 4 -437 9 -10 7 -11 13 -2 30 11 20 16 21 384 23 l372 3 3 60 c6 118
-42 266 -122 379 -61 85 -62 86 -116 68z"/>
</g>
</svg>
